<?xml version="1.0" encoding="UTF-8" standalone="no"?>
<!-- Created with Inkscape (http://www.inkscape.org/) -->

<svg
   xmlns:dc="http://purl.org/dc/elements/1.1/"
   xmlns:cc="http://creativecommons.org/ns#"
   xmlns:rdf="http://www.w3.org/1999/02/22-rdf-syntax-ns#"
   xmlns:svg="http://www.w3.org/2000/svg"
   xmlns="http://www.w3.org/2000/svg"
   xmlns:sodipodi="http://sodipodi.sourceforge.net/DTD/sodipodi-0.dtd"
   xmlns:inkscape="http://www.inkscape.org/namespaces/inkscape"
   version="1.0"
   width="100%"
   height="100%"
   preserveAspectRatio="xMidYMin meet"
   viewBox="0 0 493 416"
   id="svg2"
   sodipodi:version="0.32"
   inkscape:version="0.92.1 r15371"
   sodipodi:docname="Amestris_map_.svg"
   inkscape:output_extension="org.inkscape.output.svg.inkscape">
  <metadata
     id="metadata73">
    <rdf:RDF>
      <cc:Work
         rdf:about="">
        <dc:format>image/svg+xml</dc:format>
        <dc:type
           rdf:resource="http://purl.org/dc/dcmitype/StillImage" />
        <dc:title></dc:title>
      </cc:Work>
    </rdf:RDF>
  </metadata>
  <sodipodi:namedview
     inkscape:window-height="1018"
     inkscape:window-width="1920"
     inkscape:pageshadow="2"
     inkscape:pageopacity="0.0"
     guidetolerance="10.0"
     gridtolerance="10.0"
     objecttolerance="10.0"
     borderopacity="1.0"
     bordercolor="#666666"
     pagecolor="#ffffff"
     id="base"
     showgrid="false"
     inkscape:zoom="1.6045885"
     inkscape:cx="64.033827"
     inkscape:cy="201.23766"
     inkscape:window-x="-8"
     inkscape:window-y="-8"
     inkscape:window-maximized="1"
     inkscape:current-layer="svg2" />
  <defs
     id="defs5">
    <inkscape:perspective
       sodipodi:type="inkscape:persp3d"
       inkscape:vp_x="0 : 207.91446 : 1"
       inkscape:vp_y="0 : 1000 : 0"
       inkscape:vp_z="492.18979 : 207.91446 : 1"
       inkscape:persp3d-origin="246.09489 : 138.60964 : 1"
       id="perspective75" />
    <style
       type="text/css"
       id="style5">
        .area {
          fill: #EFFFEF;
          fill-opacity: 1;
          fill-rule: evenodd;
          stroke: #000000;
          stroke-width: 2px;
          stroke-linecap: butt;
          stroke-linejoin: miter;
          stroke-opacity: 1;
        }
        .city {
          opacity: 1;
          fill: #ffffff;
          fill-opacity: 1;
          fill-rule: evenodd;
          stroke: #000000;
          stroke-width: 1.70000005;
          stroke-linecap: butt;
          stroke-linejoin: miter;
          marker: none;
          marker-start: none;
          marker-mid: none;
          marker-end: none;
          stroke-miterlimit: 4;
          stroke-dasharray: none;
          stroke-dashoffset: 0;
          stroke-opacity: 1;
          display: inline;
          overflow: visible;
          enable-background: accumulate;
        }
        .titleline {
          fill: none;
          fill-rule: evenodd;
          stroke: #000000;
          stroke-width: 1px;
          stroke-linecap: butt;
          stroke-linejoin: miter;
          stroke-opacity: 1;
        }
        .titlebox {
          opacity:1;
          fill: #ffffff;
          fill-opacity: 1;
          fill-rule: evenodd;
          stroke: #000000;
          stroke-width: 1.22483253;
          stroke-linecap: butt;
          stroke-linejoin: miter;
          marker: none;
          marker-start: none;
          marker-mid: none;
          marker-end: none;
          stroke-miterlimit: 4;
          stroke-dasharray: none;
          stroke-dashoffset: 0;
          stroke-opacity: 1;
          visibility: visible;
          display: inline;
          overflow: visible;
          enable-background: accumulate;
        }
        .citytitle {
          font-size: 13px;
          font-style: normal;
          font-variant: normal;
          font-weight: normal;
          font-stretch: normal;
          text-align: center;
          line-height: 100%;
          writing-mode: lr-tb;
          text-anchor: middle;
          fill: #000000;
          fill-opacity: 1;
          stroke: none;
          stroke-width: 1px;
          stroke-linecap: butt;
          stroke-linejoin: miter;
          stroke-opacity: 1;
          font-family: Arial;
          -inkscape-font-specification: Arial;
        }
        .areatitle {
          font-size: 13px;
          font-style: normal;
          font-variant: normal;
          font-weight: normal;
          font-stretch: normal;
          text-align: center;
          line-height: 100%;
          writing-mode: lr-tb;
          text-anchor: middle;
          fill: #000000;
          fill-opacity: 1;
          stroke: none;
          stroke-width: 1px;
          stroke-linecap: butt;
          stroke-linejoin: miter;
          stroke-opacity: 1;
          font-family: Arial;
          -inkscape-font-specification: Arial;
        }

        .area:hover, .area.highlight {
          fill: #FFFF66;
        }
        .city:hover, .city.highlight {
          fill: yellow;
          stroke: red;
        }

        .selected {
          fill: #CCCCFF;
        }

        .hidden {
          visibility: hidden;
        }

        text.areavals {
          font-size: 20px;
          font-style: normal;
          font-weight: normal;
          line-height: 125%;
          letter-spacing: 0px;
          word-spacing: 0px;
          fill: #000000;
          fill-opacity: 1;
          stroke: none;
          font-family: sans;
        }
    </style>
  </defs>
  <path
     d="M 445.71482,90.812562 C 447.30002,90.998262 451.75132,99.932272 454.34152,105.32853 C 454.78392,106.25018 455.22632,107.17183 455.66872,108.09348 C 458.37272,113.72664 461.80472,120.87676 464.95902,127.44811 C 467.98202,133.74589 470.62182,140.67392 472.25862,147.49398 C 474.36862,156.28558 476.24022,162.32847 476.24022,171.68727 C 476.24022,181.57451 478.89462,191.24529 478.89462,201.41046 C 478.89462,213.98127 481.53472,226.67758 476.90382,238.73724 C 472.74772,249.56027 471.20442,260.69491 467.61342,271.91661 C 461.54162,290.89073 455.66162,309.25821 447.04192,327.21555 C 439.59922,342.72113 435.11652,360.3548 427.79772,375.60213 C 424.33642,382.81304 413.81012,389.45395 407.22622,392.88305 C 400.03192,396.63004 389.61902,403.2516 381.34592,403.2516 C 376.57522,403.2516 368.43512,408.86028 363.42886,410.16398 C 359.60488,411.15979 354.20477,413.62016 348.82975,413.62016 C 343.921,413.62016 337.84724,413.7152 332.90345,415.00263 C 329.96265,415.76845 325.53884,414.9857 322.9495,414.3114 C 311.80797,411.40999 287.98404,374.18954 282.47015,363.85111 C 269.7954,340.08625 255.05768,325.02937 251.28112,297.49237 C 247.30921,268.53079 253.26472,240.14474 261.23507,212.47024 C 267.99641,188.99368 278.11429,153.21523 293.75127,133.66924 C 304.39255,120.36782 321.70153,104.50318 336.88503,97.724932 C 345.27473,93.979582 356.31376,90.812562 365.41965,90.812562 C 380.68582,90.812562 396.34522,88.738852 411.87142,88.738852 C 418.28612,88.738852 424.70092,88.738852 431.11562,88.738852 C 436.63432,88.738852 439.91912,92.019972 445.71482,90.812562 z"
     id="path3191"
     class="area" />
  <path
     d="M 308.3504,157.17129 L 276.49779,318.92071 C 275.47705,323.17372 268.09806,318.22947 263.88946,318.22947 C 243.03701,318.22947 214.2083,314.12818 195.53907,304.40474 C 178.60989,295.58758 157.46207,288.24378 143.77858,273.99033 C 118.63949,247.80412 120.0315,237.79703 123.20711,201.41046 C 125.58159,174.20321 149.66739,134.64892 170.98602,119.84451 C 197.17798,101.65589 224.94922,88.783002 257.9171,95.651222 C 269.18313,97.998282 283.49793,101.56047 291.76049,110.16719 C 297.10864,115.7381 305.55445,127.07948 308.3504,134.36048 C 310.08873,138.88734 310.34118,141.47126 310.34118,146.80275 C 310.34118,150.76171 312.33196,153.57399 312.33196,157.86254 C 312.33196,159.83118 307.8684,158.17544 307.02321,159.93624 L 308.3504,157.17129 z"
     id="path3186"
     class="area" />
  <path
     d="M 67.465032,371.20497 C 67.092832,373.92621 70.656012,377.85276 72.110202,380.88229 C 74.610142,386.09044 79.830792,388.92446 83.391342,392.63331 C 88.894322,398.36551 102.91978,401.69338 110.59878,403.6931 C 122.74089,406.85507 130.19541,411.29671 142.45139,411.29671 C 162.02023,411.29671 181.1525,414.75289 200.84784,414.75289 C 211.49543,414.75289 222.41625,413.37042 233.36405,413.37042 C 239.5576,413.37042 245.75116,413.37042 251.94473,413.37042 C 257.7214,413.37042 263.0171,411.98795 268.53464,411.98795 C 274.50701,411.98795 280.47936,411.98795 286.45172,411.98795 C 291.31809,411.98795 296.18446,411.98795 301.05083,411.98795 C 305.65598,411.98795 309.94044,412.45745 314.32275,413.37042 C 317.48034,414.02824 324.47582,414.06166 325.60388,414.06166 C 325.77439,414.06166 320.67133,408.0256 318.96792,400.92815 C 317.70882,395.68196 314.57733,392.47242 312.33195,387.79465 C 310.41529,383.80165 308.54421,380.59485 307.0232,377.4261 C 305.51507,374.28421 303.52628,369.44971 302.37803,367.05755 C 300.74236,363.64998 299.04729,360.09203 298.39644,357.38023 C 298.2447,356.74799 297.51165,356.45859 297.06925,355.99776 L 297.06925,301.39005 L 288.44251,255.76843 L 83.391342,256.45966 L 70.783012,369.8225"
     id="path3180"
     class="area" />
  <path
     d="M 206.75176,157.11331 L 191.48904,173.01175 L 194.80704,208.26483 L 178.88073,231.76689 L 187.50748,251.81277 L 162.95442,288.44831 L 123.13866,296.74315 L 117.1663,313.33283 L 96.594822,325.08385 L 97.922012,350.65962 L 68.723782,374.16167 C 67.823242,373.41123 66.073472,372.09221 65.405802,371.39673 C 62.136832,367.9916 54.343042,362.86562 52.133882,358.26322 C 50.283972,354.4093 46.432762,345.41227 42.843532,341.67353 C 37.671812,336.2864 32.945232,329.3472 29.571602,322.31891 C 26.822012,316.59065 22.502422,309.45404 20.944862,302.96428 C 19.361182,296.36567 16.805292,289.41936 14.308902,282.91841 C 11.877452,276.5866 10.018872,269.83354 7.0093418,263.56379 C 3.4973518,256.24725 1.0369918,250.43362 1.0369918,242.13543 C 1.0369918,235.82538 -0.14809819,228.2618 1.0369918,222.08957 C 2.3758518,215.11636 3.6913718,207.27722 3.6913718,199.96999 C 3.6913718,191.96617 3.1806218,182.74343 5.0185618,175.08547 C 6.6746418,168.18519 11.289202,160.77896 12.318112,154.34836 C 13.363112,147.81721 17.478482,142.52444 18.954072,136.3762 C 20.506802,129.90659 22.029272,122.36602 24.926432,116.33033 C 28.254112,109.39776 30.978682,98.772612 35.543972,92.828282 C 39.473982,87.711142 43.458042,79.899312 44.834322,74.164882 C 45.563202,71.127902 47.693652,64.380825 50.143092,63.105096 C 53.610322,61.299269 56.680032,57.972393 60.097022,56.192732 C 63.131272,54.612415 65.261482,52.811713 68.060182,51.354076 C 70.528012,50.068762 73.174552,47.257274 76.023352,46.515409 C 79.629892,45.576223 82.584782,44.441702 86.640882,44.441702 C 90.297302,44.441702 93.283262,43.921606 96.594822,43.059227 C 101.10574,41.884522 125.38264,28.882865 127.12024,26.469542 L 148.35531,36.146864 C 157.42428,42.95139 165.17792,51.976499 174.23556,58.266439 C 175.56274,59.188085 176.88993,60.109742 178.21713,61.031388 C 182.77787,64.198522 183.87963,65.282347 188.17107,68.634991 C 191.89172,71.541712 196.82548,76.517032 199.45221,81.077262 C 201.68199,84.948372 204.95079,88.878572 208.07895,92.137032 C 212.07052,96.294882 215.46548,102.85679 218.69649,107.34425 C 220.79305,110.25611 219.8105,116.13334 220.68728,119.78652 C 221.73612,124.15664 221.51776,129.72047 220.02368,133.61125 C 218.65273,137.18139 217.40719,141.74817 216.70569,144.67105 C 216.02893,147.49085 214.64997,150.33625 213.38772,152.96589 C 211.39089,157.12588 211.93237,157.11331 206.75176,157.11331 z"
     id="path3177"
     class="area" />
  <path
     d="M 111.85752,35.839132 L 132.429,44.13397 L 136.41058,57.267474 L 195.47063,109.80147 L 210.73334,156.80556 L 286.38328,149.20195 L 306.95475,164.40917 L 348.0977,129.15609 L 387.24992,125.69991 L 394.54942,107.03652 L 446.30992,91.829312 C 445.21142,91.502372 435.11002,77.073472 433.70162,75.239622 C 430.04072,70.472942 426.24422,68.689724 423.74762,63.488605 C 421.33962,58.471834 414.80462,55.55556 411.13932,51.737576 C 405.03392,45.377869 398.49382,40.785022 392.55862,35.839132 C 387.84002,31.907019 383.74652,25.968747 379.95032,22.014395 C 375.47942,17.35724 366.07452,16.515588 360.70603,13.719547 C 354.90825,10.699914 349.64935,8.4209059 343.45253,6.8071739 C 342.56774,6.5767699 341.68293,6.3463559 340.79814,6.1159409 C 334.68231,4.5233009 328.48155,3.5919059 322.21745,2.6597599 C 317.71879,1.9903179 311.96647,2.2367829 308.28194,1.2772859 C 306.15351,0.72301393 304.44053,0.58604293 301.64598,0.58604293 C 297.89825,-0.38991307 304.30036,8.3130999 304.30036,12.337073 C 304.30036,16.401553 300.68059,21.198118 299.65519,25.470577 C 298.73037,29.323965 290.8257,31.571694 287.71046,32.38294 C 281.93192,33.887751 276.41713,34.456658 270.45697,34.456658 C 262.93622,34.456658 255.41547,34.456658 247.89471,34.456658 C 242.43196,34.456658 237.41714,35.147889 231.96841,35.147889 C 225.96426,35.147889 219.47507,30.674817 213.38772,29.618001 C 206.4312,28.410277 196.21428,23.480262 191.48905,18.558204 C 188.66689,15.618493 186.59883,12.081816 184.1895,9.5721229 C 182.98738,8.3199429 181.43675,4.3664459 180.20792,2.6597599 C 179.03723,1.4402969 164.77068,3.6638499 162.95442,4.0422349 C 156.61261,5.3634209 150.89771,8.1896489 144.37374,8.1896489 C 137.73771,8.1896489 133.46572,11.797123 128.44743,14.410779 C 124.76262,16.329932 121.9991,20.371331 119.82068,23.396859 C 116.97685,27.346587 113.77482,30.846266 111.85752,35.839132 z"
     id="path2405"
     class="area" />
  <path
     d="M 187.14212,194.11017 A 4.9771838,5.6408086 0 1 1 187.14203,194.07699"
     transform="matrix(1.0618404,0,0,0.9957416,-118.25408,-7.5412201)"
     id="path3197"
     class="city" />
  <path
     d="M 187.14212,194.11017 A 4.9771838,5.6408086 0 1 1 187.14203,194.07699"
     transform="matrix(1.0618404,0,0,0.9957416,60.924542,196.52331)"
     id="path3199"
     class="city" />
  <path
     d="M 187.14212,194.11017 A 4.9771838,5.6408086 0 1 1 187.14203,194.07699"
     transform="matrix(1.4065266,0,0,1.2998765,-7.1741882,-47.663602)"
     id="path3201"
     class="city" />
  <path
     d="M 187.14212,194.11017 A 4.9771838,5.6408086 0 1 1 187.14203,194.07699"
     transform="matrix(1.0618404,0,0,0.9957416,36.370442,122.86099)"
     id="path3203"
     class="city" />
  <path
     d="M 187.14212,194.11017 A 4.9771838,5.6408086 0 1 1 187.14203,194.07699"
     transform="matrix(1.0618404,0,0,0.9957416,121.31438,160.02396)"
     id="path3205"
     class="city" />
  <path
     d="M 187.14212,194.11017 A 4.9771838,5.6408086 0 1 1 187.14203,194.07699"
     transform="matrix(1.0618404,0,0,0.9957416,137.90499,102.95226)"
     id="path3207"
     class="city" />
  <path
     d="M 187.14212,194.11017 A 4.9771838,5.6408086 0 1 1 187.14203,194.07699"
     transform="matrix(1.0618404,0,0,0.9957416,151.8411,6.7267059)"
     id="path3209"
     class="city" />
  <path
     d="M 187.14212,194.11017 A 4.9771838,5.6408086 0 1 1 187.14203,194.07699"
     transform="matrix(1.0618404,0,0,0.9957416,230.1488,-36.408892)"
     id="path3211"
     class="city" />
  <path
     d="M 187.14212,194.11017 A 4.9771838,5.6408086 0 1 1 187.14203,194.07699"
     transform="matrix(1.0618404,0,0,0.9957416,43.006682,-95.471473)"
     id="path3213"
     class="city" />
  <path
     d="M 187.14212,194.11017 A 4.9771838,5.6408086 0 1 1 187.14203,194.07699"
     transform="matrix(1.0618404,0,0,0.9957416,259.34827,32.608058)"
     id="path3215"
     class="city" />
  <path
     d="M 187.14212,194.11017 A 4.9771838,5.6408086 0 1 1 187.14203,194.07699"
     transform="matrix(1.0618404,0,0,0.9957416,33.715942,91.007012)"
     id="path3217"
     class="city" />
  <path
     d="M 224.67319,314.06379 L 188.10176,301.87331"
     id="path3219"
     class="titleline" />
  <rect
     width="60.665646"
     height="14.951357"
     x="128.43553"
     y="293.25473"
     id="rect3221"
     class="titlebox" />
  <path
     d="M 77.625572,179.96855 L 86.768422,167.77807"
     id="path3227"
     class="titleline" />
  <rect
     width="73.240616"
     height="14.57395"
     x="84.43383"
     y="159.34824"
     id="rect3229"
     class="titlebox" />
  <path
     d="M 335.14938,291.20665 L 361.81604,275.20665"
     id="path3235"
     class="titleline" />
  <rect
     width="71.696808"
     height="14.553951"
     x="325.96759"
     y="261.45346"
     id="rect3237"
     class="titlebox" />
  <path
     d="M 318.2119,356.55488 L 342.18208,377.47745"
     id="path3243"
     class="titleline" />
  <rect
     width="86.543533"
     height="13.400682"
     x="330.73468"
     y="376.69681"
     id="rect3245"
     class="titlebox" />
  <path
     d="M 449.64692,230.80431 L 414.93742,251.79946"
     id="path3251"
     class="titleline" />
  <rect
     width="80.765762"
     height="13.615503"
     x="410.52466"
     y="249.35123"
     id="rect3253"
     class="titlebox" />
  <rect
     width="101.31081"
     height="17.501278"
     x="201.06535"
     y="163.21791"
     id="rect3259"
     class="titlebox" />
  <path
     d="M 248.29223,196.73045 L 236.86366,180.73045"
     id="path3261"
     class="titleline" />
  <path
     d="M 423.53032,151.01617 L 415.91122,133.49236"
     id="path3269"
     class="titleline" />
  <rect
     width="47.689396"
     height="17.975111"
     x="413.39984"
     y="118.02861"
     id="rect3271"
     class="titlebox" />
  <path
     d="M 339.72081,202.82569 L 310.00652,220.3495"
     id="path3277"
     class="titleline" />
  <rect
     width="88.940666"
     height="15.035904"
     x="280.39331"
     y="219.68869"
     id="rect3279"
     class="titlebox" />
  <rect
     width="94.305954"
     height="13.544055"
     x="141.71062"
     y="260.15628"
     id="rect3285"
     class="titlebox" />
  <path
     d="M 221.70934,281.38565 L 190.61161,273.48194"
     id="path3287"
     class="titleline" />
  <path
     d="M 248.29223,385.68284 L 232.29223,358.25426"
     id="path3293"
     class="titleline" />
  <rect
     width="81.461174"
     height="13.651651"
     x="188.89494"
     y="346.09509"
     id="rect3295"
     class="titlebox" />
  <path
     d="M 235.33985,92.349502 L 221.62557,74.825692"
     id="path3301"
     class="titleline" />
  <rect
     width="83.491959"
     height="13.396725"
     x="198.16521"
     y="62.793995"
     id="rect3303"
     class="titlebox" />
  <path
     d="M 409.47935,336.4789 C 409.47974,339.57774 407.11862,342.09145 404.20285,342.09642 C 401.28708,342.10139 398.91839,339.59574 398.90943,336.49691 C 398.90046,333.39808 401.25461,330.877 404.17036,330.86291 C 407.0861,330.84883 409.46172,333.34707 409.47926,336.44586"
     id="path2446"
     class="city" />
  <path
     d="M 404.14581,330.62039 L 396.52671,313.09658"
     id="path2448"
     class="titleline" />
  <rect
     width="54.506657"
     height="17.891932"
     x="387.15646"
     y="297.67444"
     id="rect2450"
     class="titlebox" />
  <text
     xml:space="preserve"
     class="areavals"
     x="30.978724"
     y="244.87943"
     id="text3177"
     style="font-style:normal;font-weight:normal;font-size:20px;line-height:125%;font-family:sans;letter-spacing:0px;word-spacing:0px;fill:#000000;fill-opacity:1;stroke:none" />
  <text
     xml:space="preserve"
     class="areavals"
     x="258.15604"
     y="122.43972"
     id="text2405"
     style="font-style:normal;font-weight:normal;font-size:20px;line-height:125%;font-family:sans;letter-spacing:0px;word-spacing:0px;fill:#000000;fill-opacity:1;stroke:none" />
  <text
     xml:space="preserve"
     class="areavals"
     x="365.84399"
     y="208"
     id="text3191"
     style="font-style:normal;font-weight:normal;font-size:20px;line-height:125%;font-family:sans;letter-spacing:0px;word-spacing:0px;fill:#000000;fill-opacity:1;stroke:none" />
  <text
     xml:space="preserve"
     class="areavals"
     x="106.21278"
     y="362.89362"
     id="text3180"
     style="font-style:normal;font-weight:normal;font-size:20px;line-height:125%;font-family:sans;letter-spacing:0px;word-spacing:0px;fill:#000000;fill-opacity:1;stroke:none" />
  <text
     xml:space="preserve"
     class="areavals"
     x="190.29787"
     y="246.35461"
     id="text3186"
     style="font-style:normal;font-weight:normal;font-size:20px;line-height:125%;font-family:sans;letter-spacing:0px;word-spacing:0px;fill:#000000;fill-opacity:1;stroke:none" />
</svg>
